<?xml version="1.0" encoding="utf-8"?>
<!-- Generator: Adobe Illustrator 22.0.1, SVG Export Plug-In . SVG Version: 6.00 Build 0)  -->
<svg version="1.1" id="Layer_1" xmlns="http://www.w3.org/2000/svg" xmlns:xlink="http://www.w3.org/1999/xlink" x="0px" y="0px"
	 viewBox="0 0 2947.7 3831.4" style="enable-background:new 0 0 2947.7 3831.4;" xml:space="preserve">
<path d="M2686.6,817.1c-2.4-18.2-6.1-36.1-11.5-53.7c-4.7-15.3-10.1-30.3-16.5-45c-10.9-24.8-24.4-48.1-40.4-70
	c-15-20.5-32-39.3-50.9-56.2c-20.9-18.7-43.5-35.2-68.2-48.6c-12.9-7-26.1-13.5-39.6-19c-33.6-13.4-68.3-22.1-104.5-25.5
	c-37.5-3.5-74.6-1.5-111.3,6.1c-30.1,6.2-59,16.4-86.6,30c-24.6,12.1-47.6,26.7-69,43.9c-21.7,17.4-41.1,37-58.3,58.8
	c-15.4,19.4-28.7,40.1-39.8,62.2c-12.5,24.8-22.2,50.6-28.9,77.6c-6.8,27.3-10.5,54.9-11,83c-0.3,17,0.4,34,2.5,50.9
	c2,15.8,4.6,31.6,8.7,47.1c4.6,17.1,10.4,33.7,16.6,50.3c5.9,15.6,10.5,31.5,13.2,48.1c4.9,29.1,3.3,57.7-3.6,86.3
	c-4,16.2-10.4,31.6-16.1,47.3c-12.5,34.4-19.3,70-21.1,106.4c-1.6,31.4,1,62.6,7.4,93.4c5.2,25.2,13.5,49.4,23.3,73.2
	c26.1,63.1,52.3,126.2,78.4,189.3c16.6,40,33.1,80,49.7,120c3.1,7.4,5.8,15,6.6,23c2.6,28.9-16.1,54.7-43.4,61.3
	c-24.2,5.8-50.2-4.4-62.8-26.2c-2.8-4.9-5.3-10-7.5-15.2c-65.5-158.2-131-316.5-196.6-474.6c-19.4-46.8-29.2-95.4-29.2-146
	c0-82.7,0-165.3,0-248c0-2.7,0-5.3,0.1-8c0.1-2.4-0.1-179.6-0.1-193.3c-0.1-117.7,0-235.3,0-353c0-27,0.1-54-0.4-81
	c-0.3-17.1-3.5-33.8-8.4-50.1c-9.9-33.5-27-63-51.2-88.2c-23.8-24.7-51.9-42.7-84.3-53.8c-31.7-10.8-64.2-14.4-97.5-10
	c-29.5,3.9-57,13.4-82.5,28.6c-30.6,18.3-55.1,42.9-73.5,73.4c-14.9,24.9-24.3,51.7-28.4,80.5c-1.9,13.3-2.1,26.6-2.1,39.9
	c0,111.7,0,223.3,0,335c0,50.9-9.1,100-28.6,147.2c-66.6,160.7-133.1,321.4-199.6,482c-16.2,39.1-38.1,74.8-66.3,106.4
	c-2,2.2-3.5,5-6.5,6c-3,1-5,3.3-7.1,5.3c-36.9,35.2-79.1,61.9-127.1,79.3c-28.3,10.3-57.3,17.3-87.3,20.8c-17.6,2-35.2,2.6-52.9,2.9
	c-67.5,1.4-132.2,15.9-194.3,41.8c-55.9,23.3-106.1,55.9-150.5,97c-58.1,53.8-101.8,117.8-131.8,191c-16.4,40-27.2,81.5-33.1,124.3
	c-7.3,53.2-6.3,106.4,2.7,159.3c6.2,36.9,16.6,72.7,30.2,107.6c15.5,39.7,36,76.5,60.5,111.2c18.5,26.2,39.9,50,62.5,72.7
	c78.7,78.7,157.4,157.4,236.2,236.1c13,13,24.6,27,34.5,42.7c21,33.3,31.3,69.7,32.6,108.8c0.3,9-1.2,17.8-4.7,26.3
	c-3.8,9.2-9.9,16.5-16.7,23.4c-24.3,24.7-49.6,48.4-72.8,74.3c-17,18.9-31.6,39.6-44.1,61.7c-13.5,23.8-24.3,48.9-32.2,75.2
	c-3.1,10.2-5.3,20.6-7.9,31c-4,15.6-5.7,31.5-6.9,47.4c-1.3,18.3-1.6,36.6-1.6,55c0.2,46-0.1,92,0.1,138c0.1,19.7,0.7,39.3,3.4,58.8
	c2.7,19.9,6.8,39.4,12.5,58.6c4.5,15,10,29.7,16.3,44c6.2,14.1,13.3,27.6,21.2,40.7c14.4,23.8,31.2,45.7,50.4,65.7
	c17.4,18.1,36.4,34.2,57.1,48.4c23.2,15.9,47.8,29,74,39.3c24,9.4,48.6,16.3,74,20.7c24,4.1,48.3,5.4,72.7,5.4c220,0,440,0,660,0
	c219.3,0,438.6,0,658,0c21.3,0,42.6-1,63.8-3.7c16.6-2.1,32.9-5.6,48.9-10c29.4-8.1,57.3-19.7,83.8-34.7c11.9-6.7,23.7-13.7,34.5-22
	c11.6-8.9,23.1-18,33.9-28c27.7-25.5,50.9-54.6,69.7-87.1c21.2-36.6,35.5-76,43.4-117.6c4.8-25.3,6.2-50.9,6.2-76.6
	c-0.1-80,0-160,0-240c0-108.7,0-217.3,0-326c0-34.7-0.4-69.3,0.1-104c0.4-32.1-2.3-63.9-7.7-95.5c-6.8-39.2-18.4-77.1-33.6-113.8
	c-20.8-50.2-41.6-100.3-62.4-150.5c-7.3-17.6-13-35.6-16.1-54.5c-4.8-29.4-3.5-58.4,3.7-87.2c4-15.9,10.3-31,15.8-46.3
	c6.5-17.9,11.4-36.2,15-54.9c4.2-21.7,6.2-43.5,6.7-65.5c0.3-15.4-0.8-30.7-2.4-45.9c-1.6-15.2-4-30.4-7.8-45.3
	c-5.8-22.6-13.6-44.6-22.6-66.1c-42.9-103.4-85.7-206.8-128.6-310.2c-8.7-20.8-13.7-42.5-15.9-64.8c-2.9-29.6,1.1-58.5,10.4-86.7
	c10.7-32.2,28.8-59.9,52.5-84c11.9-12.1,24-24,36-36.1c32.2-32.4,65-64.2,96.5-97.2c51.8-54.2,90.2-117,114.2-188.2
	c4.4-12.9,7.8-26.2,10.3-39.6c2.9-15.1,5-30.2,6.3-45.5C2691.1,869.4,2690,843.2,2686.6,817.1z M868.2,1666.2
	c33-5.1,65.1-13.9,96.5-25.2c41.3-14.8,79.9-34.9,116.2-59.6c21-14.3,40.6-30.2,59.4-47.2c2.7-2.4,4.9-5.2,8.9-6.1
	c2-0.4,3.6-2.8,5.2-4.5c26.7-27.3,49.8-57.3,70-89.7c16.1-25.8,29.4-53,41-81.1c21.7-52.3,43.3-104.7,65-157
	c2.2-5.3,3.4-10.6,3.9-16.4c2.9-37.9,6-75.7,9-113.6c2.3-29.6,4.6-59.1,6.9-88.7c0.9-11.3,1.8-22.6,2.7-33.9
	c0.4-4.7,1.5-9.1,3.3-13.5c10.9-26.1,21.7-52.3,32.5-78.5c0.6-1.5,1.2-3.1,2-4.6c0.7-1.1,1.7-2.1,3.2-1.6c0.3,0.1,0.7,0.2,1,0.3
	c10.3,4,10.6,3,7.8,14c-17.4,66.4-34.6,132.8-52,199.2c-2.1,8.1-3.2,16.2-3.2,24.6c0.1,123.3,0.1,246.7,0.1,370
	c0,25.5-3.6,50.5-11.8,74.7c-11.2,33.1-29.5,61.8-55,85.8c-25.4,24-54.9,40.9-88.5,50.6c-20.3,5.9-41.1,8.3-62.2,8.3
	c-94.3,0-188.7,0-283,0c-3.3,0-6.6,0.4-12.1-1.6C847.9,1669.3,858,1667.8,868.2,1666.2z M570.4,2025.3
	c4.3-47.2,22.3-88.9,54.1-124.3c27.2-30.2,60.3-51.1,99.2-62.8c21.2-6.4,43-8.7,65.1-8.7c110.7,0.1,221.3,0,332,0.1
	c25.4,0,50.7-1.4,75.7-5.6c23.4-4,46.2-10.2,68.3-18.6c16.5-6.3,32.6-13.5,48-22.3c15.3-8.7,30.3-18,44.4-28.8
	c20.4-15.7,39.1-33.2,56.1-52.5c9.7-11,18.6-22.7,26.8-34.9c9.3-13.8,17.7-28.2,25.2-43.1c6.2-12.2,11.5-24.8,16.2-37.6
	c7.4-20.3,13.2-41.2,16.9-62.6c4.2-24.4,5.7-49,5.7-73.7c0-180,0-360,0-540c0-193.7,0-387.3,0-581c0-10.8,1.2-21.3,5.9-31.1
	c8.7-18.1,23.1-28.8,42.9-32.1c17.5-2.9,33,1.7,46.4,13.1c10.6,8.9,16.8,20.4,18.9,34.2c1.1,6.9,1.4,13.9,1.4,20.9
	c0,233,0,466,0,699c0,227.7,0,455.3,0,683c0,25.2-3.4,49.8-11.3,73.8c-11.2,33.9-29.8,63.1-55.8,87.6
	c-24.9,23.5-53.9,40.1-86.7,49.9c-16,4.8-32.5,7.4-49.2,8.4c-4.4,0.3-9.2-0.9-12.7,3.8c-1,1.3-4.4,1-6.7,1.1
	c-17,0.7-33.9,2.2-50.7,5c-25.4,4.3-50,11.2-74,20.5c-25.2,9.9-48.9,22.7-71.6,37.4c-11.5,7.5-22.1,16-32.6,24.9
	c-23.8,20.1-44.7,43-62.6,68.4c-14.6,20.7-27,42.8-37.2,66.1c-12,27.7-20.2,56.4-25.8,85.9c-0.3,1.6-0.6,3.3-0.9,4.9
	c-0.4,1.9-1.7,2.8-3.5,3c-2.3,0.2-4.7,0.2-7,0.2c-81.3,0-162.7,0-244,0c-31.4,0-61.6-5.8-90.4-18.5c-19.4-8.5-37-19.8-53-33.6
	c-10.8-9.4-21.9-18.5-30.1-30.4c-2.6-3.8-5.5-7.4-7.4-11.8c-1.7-3.9-4.1-7.7-6.8-11.1c-8.4-10.7-13.2-23.1-17.7-35.6
	C571.4,2086.5,567.5,2056.2,570.4,2025.3z M2515.4,953.7c-19.2,44.6-46.4,83.8-80.8,118.1c-38.7,38.6-77.3,77.3-116,115.9
	c-17,17-32.9,35-46.7,54.7c-28,40.1-47.2,84.1-58.1,131.8c-8.6,37.7-10.6,75.9-7.3,114.3c3.3,38.8,13.3,76,28.2,112
	c35.6,85.5,71,171.1,106.4,256.7c10.1,24.3,20.5,48.5,29.6,73.2c10.4,28.1,14.1,57.4,11.8,87.5c-1.6,20.4-6,40.1-13.1,59.3
	c-7.4,20-14.9,39.9-19.8,60.8c-5.9,24.7-9.4,49.7-10.2,75.1c-0.6,19.7-0.1,39.4,2.7,58.9c2.2,15.5,4.8,30.9,8.9,46.1
	c6.1,22.6,14.3,44.4,23.2,65.9c19.5,47.1,38.9,94.2,58.5,141.3c16.2,38.8,25.9,79.1,28.7,121c0.3,4.3,0.4,8.7,0.4,13
	c0,207,0,414,0,621c0,22.7-0.1,45.3,0,68c0.2,25.2-3.7,49.8-11.7,73.7c-11.2,33.2-29.5,61.8-54.9,85.9c-25.4,24-54.9,40.9-88.5,50.6
	c-21.3,6.2-43.1,8.3-65.2,8.3c-97.7-0.1-195.3-0.1-293-0.1c-188.7,0-377.3,0-566,0c-154.7,0-309.3,0-464,0c-5,0-10,0.5-14.9,0.6
	c-13,0.4-25.9-0.4-38.5-4.3c-4.1-1.3-8.4-2.4-12.6-3c-14.1-1.8-27.1-7.2-39.6-13.4c-57.8-28.6-95.8-74.1-113.7-136.1
	c-5.6-19.3-7.6-39.2-7.6-59.3c0-57,0-114,0-171c0-28.3,5.1-55.6,15.6-82c11.1-28,27.9-52.2,49.1-73.5c18.1-18.2,36.3-36.3,54.4-54.4
	c13.7-13.7,26.2-28.4,36.3-45.1c15.6-25.7,25.3-53.5,29.3-83.3c3.3-24.3,1.9-48.6-0.9-72.8c-3-25.6-8.8-50.5-17.1-74.9
	c-5.1-14.8-11.1-29.3-17.9-43.4c-7.3-15-15.8-29.3-24.8-43.4c-7.7-12.1-16.7-23.3-26.1-34.1c-9.4-10.8-19.3-21.2-29.4-31.3
	c-66.6-66.8-133.3-133.5-200.1-200.1c-3.3-3.3-6.1-7.3-10.1-9.8c-0.2,0-0.4,0-0.6,0c0.1-0.1,0.1-0.2,0.2-0.3
	c-0.1-0.1-0.2-0.1-0.3-0.2c0.1,0.1,0.2,0.1,0.3,0.2c0.3-0.5,0.4-0.4,0.3,0.2c0,0,0.1,0,0.1,0.1c3.3-0.1,5.7,2.1,8.3,4
	c7,5.1,14,10.3,21.1,15.1c23.3,15.8,48.3,28.3,74.5,38.2c13.4,5.1,27.1,9.2,41,12.7c17.2,4.4,34.5,7.5,52.1,9.1
	c15.6,1.4,31.2,2.2,46.9,2.2c82,0,164,0,246,0c15.2,0,12.1-1.9,16.8,12.4c9.2,28,21.7,54.4,37.1,79.5c12.8,20.8,27.7,39.9,44.4,57.8
	c5,5.4,9.9,10.8,14.9,16.2c27.7,30.7,46.1,66.3,52.5,107.1c10.8,68.2-6.5,128.9-52.8,180.6c-14.5,16.1-30.2,31-45.5,46.3
	c-88.1,88.2-176.3,176.3-264.4,264.5c-13.5,13.5-25.9,27.8-35.9,44.1c-24.6,40.3-35.3,83.9-31.4,130.9c3.7,44.5,20,84.1,48.3,118.5
	c26.1,31.6,58.8,53.9,97.7,66.8c34.2,11.4,69.2,13.9,104.6,7.6c39.6-7,74.6-24.1,104.8-50.8c5.7-5.1,11.2-10.4,16.7-15.9
	c79-78.9,158-157.9,236.9-236.9c22.4-22.5,48-40.2,77.8-51.5c39.3-14.9,79.5-18.4,120.8-9.5c26.8,5.7,51.5,15.9,74.2,31
	c8.1,5.3,15.8,11.2,23,17.7c6.4,5.8,12.9,11.6,19.2,17.6c19.9,18.9,41.9,35.1,65.5,49c21.9,12.8,44.9,23.3,69,31.4
	c26.3,8.8,53.3,14.8,80.9,17.4c16.2,1.6,32.5,2.6,48.9,1.7c16.3-0.9,32.6-2.1,48.7-4.8c24.4-4.1,48.2-10.4,71.3-19.3
	c16.2-6.2,32-13.3,47.1-21.9c15.4-8.7,30.3-18,44.4-28.8c20.4-15.7,39.1-33.2,56.1-52.5c9.7-11,18.6-22.7,26.8-34.8
	c16.2-23.8,29.4-49.2,39.6-76.1c5.1-13.4,9.3-27.1,12.9-41c8.7-33.1,11.5-66.9,11.5-101c0-110,0-220,0-330c0-22.4-1.1-44.7-4.6-66.8
	c-4.3-26.7-11.3-52.7-21.1-78c-10-25.6-23-49.5-37.9-72.5c-7.3-11.2-15.7-21.6-24.3-31.8c-20.3-24-43.4-45.2-69.2-63.3
	c-21.1-14.7-43.4-27.3-67.1-37.4c-24.6-10.5-50.1-18.3-76.2-23.6c-15.7-3.2-31.6-5.1-47.6-5.8c-49.3-2.1-98.7-1-148-1
	c-203-0.1-406-0.1-609-0.1c-17.8,0-16.8,1.4-11.3-15.1c11-32.9,29.1-61.3,54.1-85.2c30.4-29,66.4-47.7,107.6-55.9
	c10.5-2.1,21.1-3.2,31.8-3.6c3.5-0.1,7.3,0.5,9.7-3.6c1.2-2,4.3-1.4,6.6-1.4c10.3-0.4,20.6-0.9,30.9-2c40.1-4.4,78.5-15.2,115-32.1
	c33.7-15.7,64.5-35.9,92.1-61c20.3-18.5,38.5-38.8,54.3-61.2c14.8-21,27.4-43.3,37.5-67c11.7-27.4,20.2-55.8,25.2-85.1
	c3.8-21.7,5.2-43.7,5.2-65.7c0-57.7,0-115.3,0.1-173c0-5.5-1.1-10.5-2.8-15.6c-15.5-47.5-30.9-95.1-46.3-142.6
	c-0.9-2.9-1.9-5.7-2.8-8.6c-1.3-4.7-0.7-5.9,3.7-7.5c2.9-1.1,4-0.5,5.8,3.5c0.7,1.5,1.3,3.1,1.9,4.6c13.5,32.6,27,65.3,40.5,97.9
	c2.2,5.3,3.6,10.6,4.1,16.3c3.6,40.8,7.4,81.6,11.1,122.5c3,33.2,5.9,66.4,8.8,99.6c0.7,8,1.5,15.9,2.1,23.9c0.3,4,1.3,7.8,2.9,11.6
	c18.2,43.7,36.2,87.4,54.4,131.1c9,21.7,20.9,41.7,36.3,59.5c23.8,27.5,52.7,47.8,86.7,60.8c26.8,10.2,54.6,14.9,83.3,13.8
	c33.5-1.3,65.2-9.7,94.6-25.8c37-20.2,65.6-48.8,85.9-85.7c16.6-30.3,25.3-62.9,26.1-97.5c0.8-31.9-5.6-62.2-17.8-91.5
	c-17.9-43.1-35.7-86.2-53.5-129.3c-25.6-61.9-51.2-123.8-76.9-185.6c-11.9-28.7-18.2-58.5-17.8-89.5c0.3-22.1,4.1-43.8,11.3-64.7
	c2.6-7.6,5.3-15.1,8.2-22.5c10.5-26.8,17.3-54.6,21.4-83.1c1.6-11.2,2.5-22.5,2.9-33.9c0.8-20.7,0.2-41.4-2.4-61.9
	c-3.2-24.5-8.4-48.6-16.7-71.9c-3.2-9.1-6.7-18.1-10.6-26.9c-5.3-12.2-9.6-24.9-10.3-38.4c-0.2-3-0.7-6-1.4-8.9
	c-4.9-19.4-3.9-39.1-1.4-58.6c4.7-36.8,18.3-70.1,40.5-99.8c20.7-27.7,46.7-49.1,77.8-64.4c24.9-12.2,51.2-19,78.7-21.3
	c28.6-2.3,56.5,1.4,83.7,10.6c33.8,11.4,63.1,30.2,87.4,56.1c29,30.9,47.5,67.3,54.5,109.3c2,11.8,3.6,23.7,3.6,35.8
	C2533.6,896.6,2527.4,925.8,2515.4,953.7z M1361.2,2669.2c-6.9-46.4-22.1-89.8-45.2-130.5c-12.9-22.6-28.1-43.7-45.8-62.9
	c-11.5-12.5-23.7-24.4-33.6-38.3c-4.6-6.5-8.7-13.4-13-20.2c-1.4-2.2-0.4-3.6,2.4-3.7c3.3-0.1,6.7-0.1,10-0.1c120.7,0,241.3,0,362,0
	c116.3,0,232.7,0.1,349-0.1c31.1,0,61,5.3,89.5,17.7c39.5,17.2,71.1,43.9,94.6,80.3c14.6,22.7,24.6,47.2,30.1,73.6
	c3.1,15.1,4.4,30.4,4.4,45.7c0.1,114.3,0.2,228.7,0,343c-0.1,37.3-8.3,72.7-26.3,105.6c-6.6,12-14.1,23.4-23,33.9
	c-10.6,12.4-20.9,25.1-34.5,34.5c-3.3,2.3-6.4,4.7-10.1,6.3c-3.6,1.6-7.1,3.8-10.3,6.2c-18.1,13.3-38.9,20.3-60.3,25.5
	c-32.7,7.9-65.4,7.7-98.1-0.1c-34.7-8.3-65.5-24.2-92.2-47.9c-6.2-5.5-12.4-11.1-18.4-16.9c-20.1-19.2-42.3-35.7-66.2-49.7
	c-21.9-12.9-44.9-23.4-69-31.4c-18.4-6.1-37-11.2-56.1-14.3c-36.4-5.9-72.9-6.9-109.5-2.1c-25.9,3.4-51.1,9.4-75.7,17.9
	c-24,8.3-46.7,19.4-68.6,32.3c-29.2,17.3-54.7,39.1-78.5,63c-77.8,77.8-155.6,155.6-233.3,233.4c-4,4-8.2,7.7-12.8,11.2
	c-19.9,15.3-48.5,15.1-68,0.1c-19.3-14.8-26.5-34.5-22.2-58.2c2.1-11.8,8.7-21.5,16.8-30.2c1.6-1.7,3.3-3.3,4.9-5
	c98.3-98.3,196.6-196.6,294.9-294.9c17-17,33.1-34.8,47-54.4c14.5-20.4,27-42,37.1-65c6.7-15.3,12.5-30.9,17.1-46.9
	c5.2-18.3,9.3-36.7,11.7-55.7c2-15.9,3.1-31.9,3.1-47.8C1365.2,2705.1,1363.9,2687.1,1361.2,2669.2z"/>
</svg>
