<?xml version="1.0" encoding="utf-8"?>
<!-- Generator: Adobe Illustrator 22.0.1, SVG Export Plug-In . SVG Version: 6.00 Build 0)  -->
<svg version="1.1" id="Layer_1" xmlns="http://www.w3.org/2000/svg" xmlns:xlink="http://www.w3.org/1999/xlink" x="0px" y="0px"
	 viewBox="0 0 2243 3387.7" style="enable-background:new 0 0 2243 3387.7;" xml:space="preserve">
<style type="text/css">
	.st0{clip-path:url(#SVGID_2_);}
</style>
<g>
	<defs>
		<rect id="SVGID_1_" x="1234.2" y="104.5" width="2375.5" height="3509.3"/>
	</defs>
	<clipPath id="SVGID_2_">
		<use xlink:href="#SVGID_1_"  style="overflow:visible;"/>
	</clipPath>
	<path class="st0" d="M3041.1,3804.3c3,1.2,4.9,1.9,6.6,2.7c3.5,1.7,7,3.5,10.7,5.4c-5.1,5.1-6.7,6-16.8,9.4
		C3039.6,3816.4,3040.2,3811.1,3041.1,3804.3z"/>
	<path class="st0" d="M-1104.3,3635.7c5.4-1.9,10.7-1.8,16.3-0.1c0.4,3.9-2,6.4-3.3,9.3c-1.2,2.7-2.6,5.2-4,8
		C-1099.7,3648.2-1101.7,3644.5-1104.3,3635.7z"/>
	<path class="st0" d="M-1029,3721.5c6.8-3.3,12.1-5.9,17.3-8.4c3.6,6.2,3.6,6.6,1.4,16.5c-3.4,0.4-6-1.9-8.9-3.1
		C-1021.8,3725.4-1024.4,3723.9-1029,3721.5z"/>
	<path class="st0" d="M2242.4,597.6c-0.9-11.6-2-23.2-3.3-34.8c-1.9-15.6-5.4-30.9-9.6-45.9c-7.6-27-18-52.9-31.4-77.7
		c-12.1-22.4-26.3-43.3-42.8-62.6c-23.2-27.2-49.7-51.1-78.4-72.5c-36.5-27.3-76.1-49.1-118.2-66.5c-46.8-19.3-93.6-38.8-140.4-58.1
		c-37.9-15.6-75.6-31.6-113.8-46.6c-38.6-15.2-78.9-24.4-120-29.6c-24.8-3.1-49.8-3.9-74.8-3.9c-107,0.1-214,0-321,0
		c-4.3,0-8.7,0.1-13,0c-2.2-0.1-4.5-0.5-6.2-0.7c-3.2-4.1-2.6-8.2-2.6-12.1c-0.1-15.7,0-31.3,0-47c0-10,0-20,0-30
		c0-2.9,0.3-6.1-2.2-8.4c-6.9-1-145.4-1.7-160.9-0.8c-1.6,0.1-3.2,0.6-4.7,0.9c-1.9,3.9-1.3,7.6-1.3,11.2c-0.1,25,0,50-0.1,75
		c0,3.6,0.8,7.3-2.3,12c-3.9,0-7.9,0-11.9,0c-58.3,0.1-116.7,0-175,0.2c-25.4,0.1-50.5,2.9-75.6,7.1c-40.3,6.6-79.2,18.2-116.9,33.8
		c-78.8,32.6-157.6,65.3-236.4,97.9c-56.9,23.5-108.5,55.5-154.2,96.8c-15.6,14.1-30.3,29.1-43.7,45.3c-17.8,21.7-33,45.1-45.6,70.3
		c-11.4,22.7-20.3,46.4-26.8,70.9c-6.3,23.9-10,48.2-11.5,72.9c-2,32.8,0.7,65.2,7.3,97.4c5.8,28.5,15,56,27.6,82.2
		c11.9,25,26.1,48.7,43.5,70.4c17.2,21.4,36,41.1,57.2,58.5c30.4,25,64.3,43.8,100.6,58.8c45.6,18.8,91,38,136.5,57
		c22.4,9.4,44.9,18.8,67.5,27.8c48.9,19.7,99.4,29.6,152.3,26.8c18.7-1,37.3-2.5,55.6-6c27.6-5.3,54.3-13.3,80.1-24.6
		c26.1-11.4,50.5-25.5,73.4-42.4c12.9-9.5,25-20,36.6-31c18-17,33.7-36,47.7-56.4c16.1-23.4,29.3-48.5,39.6-75
		c9.1-23.4,15.7-47.4,20.1-72.1c3.8-21,4.9-42.4,5.5-63.7c0.4-16.7,2.5-33.1,6.4-49.4c9.2-38.7,28.1-72,56.1-99.9
		c26-25.9,56.8-43.9,92.2-53.9c23.9-6.8,48.4-9.7,73.2-8c31,2.1,60.3,10.5,87.6,25.5c36.3,19.9,64.3,48.2,84.3,84.4
		c18.8,34.1,26.8,70.8,26.5,109.5c-0.3,36.6-6.5,72.3-17.8,107c-18.4,56.9-49.1,106.2-91.3,148.5c-40.5,40.6-81.1,81.1-121.6,121.6
		c-22.3,22.3-46.9,41.6-74,57.5c-40.4,23.8-83.6,39.4-129.9,46.8c-22.5,3.6-45.1,4.7-67.7,4.8c-47.3,0.1-94.7,0-142,0
		c-78,0-156,0-234,0c-58.3,0-116.7-0.3-175-0.1c-24.3,0.1-48.7,0.2-72.9,1.5c-16.3,0.9-32.5,3-48.6,5.9c-27.3,4.9-53.6,13.4-79,24.5
		c-23.3,10.2-45.3,22.6-66,37.4c-23.1,16.5-44.2,35.4-63,56.7c-16.8,19.1-31.5,39.7-44,61.8c-13.5,23.8-24.6,48.8-32.1,75.2
		c-2.9,10.2-5.2,20.7-8,30.9c-4.2,15.2-5.7,30.8-6.9,46.4c-1.9,25.6-1.7,51.2,1.7,76.8c2.3,17.5,5.6,34.9,10.3,51.9
		c8.2,29.7,19.8,58,35.1,84.7c6.8,11.8,14.1,23.4,22.1,34.5c8.8,12.1,18.2,23.9,28.6,34.6c6.3,6.5,12.3,13.1,18.3,19.9
		c14.7,16.6,26.5,35.1,35.3,55.4c15.3,35.3,21.1,72,16.3,110.4c-4.7,37.5-17.8,71.7-40.8,101.7c-11.3,14.8-24.2,28.4-36.5,42.4
		c-16.8,19.1-31.4,39.7-43.9,61.9c-13.9,24.8-24.9,50.8-32.9,78.1c-7,23.7-11.8,47.9-13.6,72.6c-2,26.6-1.7,53.2,1.9,79.8
		c2.4,17.5,5.8,34.8,10.6,51.8c7.7,27.4,18.4,53.5,32.1,78.4c13.1,23.7,28.6,45.7,46.4,66.1c10.6,12.1,22.3,23,34.4,33.4
		c10.9,9.3,22.1,18.3,33.8,26.5c25.2,17.6,52.4,31.8,81.3,42.4c11.9,4.3,24,8.3,36.2,11.4c24.2,6.3,48.9,9.9,74,11.4
		c39.3,2.3,77.9-2.3,115.8-12.4c30.4-8.1,59.3-20.2,86.6-35.9c11.5-6.6,22.8-13.9,33.6-21.6c14.6-10.5,28.3-22.2,41.2-34.8
		c17.4-17.1,33.1-35.6,46.9-55.8c15.8-23.2,28.9-47.9,39.2-74c9.1-23,15.8-46.7,20.1-71c4.2-23.3,5.7-47,5.8-70.7
		c0.1-46.3,0-92.7,0-139c0-2.3,0.6-4.9-0.2-7c-2.6-7.3-0.8-14.5,0.3-21.7c0.9-5.6,2.3-11.1,3.5-16.6c7.9-35.6,24.2-67.2,49.2-93.5
		c28.7-30.2,58.6-59.2,88-88.7c0.2-0.2,1.1,0.2,1.8,0.3c-1,1.4-1.9,2.8-2.9,4.1c-12.5,16.5-23.5,34-33,52.4
		c-19.8,38.2-32.6,78.6-38.5,121.3c-3.6,26.6-4.1,53.2-2.1,79.8c2,25.6,6.7,50.8,14.3,75.5c4.5,14.7,9.7,29.1,15.8,43.1
		c10.4,23.9,23.3,46.5,38.5,67.6c12.5,17.3,26.6,33.4,41.6,48.5c38.4,38.5,76.7,77,115.3,115.2c10.2,10.1,20.9,19.6,32,28.7
		c21.7,17.8,45.1,33.1,70.2,45.7c22.7,11.4,46.4,20.4,70.9,26.9c29.4,7.8,59.4,12,89.9,12.4c37.9,0.5,75-4.8,111.4-15.8
		c25-7.5,48.8-17.6,71.7-30.1c23.2-12.7,44.7-27.7,64.6-45.1c19.8-17.4,38.1-36.4,56.6-55.1c17.4-17.5,34-35.7,48.8-55.5
		c15.2-20.4,28.1-42.2,38.6-65.2c15.1-33.2,25.5-67.9,30.4-104.2c4.2-31.2,4.7-62.4,1.1-93.7c-2.1-18.6-5.7-36.9-10.6-54.9
		c-8.2-29.7-19.8-58-35.2-84.7c-8-13.8-16.4-27.4-26.3-40.1c-10.7-13.7-22.1-26.7-34-39.3c-12.7-13.4-23.7-27.9-33.1-43.7
		c-16.9-28.7-26.1-59.7-28.4-92.8c-1.5-21.4,0.5-42.5,5.6-63.5c12.7-52.9,41.6-94.7,86-125.7c37.5-26.2,79.9-37.8,125.3-37.9
		c25.2-0.1,49.7,5.3,73.2,14.5c32.3,12.5,59.9,31.8,82.7,57.9c18.4,21.1,32,44.9,41.2,71.4c8.6,24.9,11.8,50.5,11.9,76.7
		c0.2,28.7,0.1,57.3,0,86c0,4.9-0.7,10-2,14.8c-24.4,94.2-49,188.3-73.5,282.4c-1.6,6.2-2.5,12.3-2.5,18.7c0.1,37-0.1,74,0.1,111
		c0.2,31.1-5.4,61-17.7,89.5c-16.3,37.7-41.6,68.1-75.5,91.1c-34.2,23.2-72.2,35-113.5,36.9c-18.3,0.8-36.6,1.5-54.8,4
		c-17.2,2.3-34.2,5.7-50.9,10.3c-29,8-56.8,19.4-82.9,34.4c-14.2,8.1-28,16.8-41,26.8c-14.8,11.4-28.6,24-42.2,36.7
		c-11.5,10.7-24,20.1-37.3,28.3c-23,14.2-47.8,23.3-74.4,27.9c-29,5-57.7,3.8-86.3-3.1c-29-7-55.4-19.1-78.7-37.6
		c-13.3-10.5-25.4-22.6-38.3-33.6c-11.2-9.5-22.5-18.9-34.5-27.3c-25.8-18-53.6-32.5-83.1-43.2c-13.1-4.7-26.7-8.3-40.1-12.1
		c-15.1-4.2-30.5-7.1-46.2-8.2c-15.6-1.1-31.2-2.5-46.9-2.4c-14.6,0.1-29.3,1.1-43.8,3.2c-17.2,2.4-34.2,5.8-50.9,10.5
		c-28.3,7.9-55.4,19.1-81.1,33.5c-22.1,12.4-42.8,27-62,43.7c-20.9,18.2-39.6,38.6-56,61c-14.9,20.2-27.4,41.8-37.9,64.5
		c-12.4,27-21.6,55.3-26.9,84.5c-2.7,15-4.1,30.3-5.7,45.6c-1.5,14.6-0.3,29.3,0.2,43.9c0.6,17,2.9,33.9,6.1,50.5
		c3.2,16.4,7.4,32.4,12.8,48.3c8.1,24.1,18.6,47.1,31.4,69c14.2,24.2,31.1,46.5,50.3,67c17.4,18.6,36.6,35,57.4,49.5
		c25.8,18,53.6,32.5,83.2,43.2c13.1,4.7,26.7,8.4,40.1,12.1c15.1,4.2,30.5,7.1,46.2,8.2c15.3,1.1,30.6,2.6,45.9,2.5
		c15.3-0.1,30.6-1.1,45.8-3.3c16.9-2.4,33.5-5.7,49.9-10.3c28.7-8,56.1-19.2,82-34c14.4-8.3,28.6-17.1,41.8-27.3
		c14-10.9,27.1-22.6,40-34.8c12.7-11.9,26.4-22.4,41.3-31.3c12.1-7.2,24.7-13.3,37.9-17.8c39.5-13.4,79.4-15.6,120.1-5.8
		c35.4,8.6,66.5,25,93.5,49.5c8.9,8.1,17.4,16.6,26.6,24.2c11,9.1,22.2,18.1,34,26.3c23.1,16,47.9,29,74,39.2
		c23.7,9.3,48,16,73,20.4c23,4,46.3,5.3,69.7,5.4c44.3,0.2,88.7,0.1,133,0c21.3,0,42.6-0.9,63.8-3.6c19.2-2.5,38.1-6.6,56.6-12
		c14.7-4.3,29.1-9.7,43.1-15.8c15-6.5,29.5-14,43.4-22.5c23.5-14.2,45.1-30.8,64.9-49.8c18.3-17.6,34.7-36.9,49-57.9
		c15.8-23.2,28.9-47.9,39.2-74.1c9-23,15.7-46.7,20.1-71c4.2-23.7,5.7-47.6,5.7-71.7c0.1-39.3,0-78.7,0-118c0-210,0-420,0.1-630
		c0-8.5-1.3-16.4-3.9-24.5c-23.8-72.8-47.4-145.7-71.1-218.6c-2.1-6.4-3.2-12.8-3.1-19.6c0.2-23.7,0.2-47.3,0-71
		c-0.2-22.3-1.1-44.6-3.8-66.8c-2.1-17.9-5.7-35.5-10.6-52.9c-7.5-26.7-17.9-52.3-31.1-76.7c-12.3-22.7-26.7-43.8-43.3-63.5
		c-19.7-23.3-41.8-43.9-66.8-61.4c-11.2-7.8-22.8-15.1-34.6-21.9c-24.4-13.9-50.3-24.5-77.3-32.4c-25.3-7.4-51.2-12.1-77.6-13.8
		c-28.7-1.9-57.3,0.1-85.7,4.5c-22.8,3.5-45,9.5-66.6,17.3c-21.7,7.8-42.5,17.6-62.3,29.4c-23.8,14.2-45.8,30.9-66.1,49.9
		c-18.6,17.4-35,36.7-49.5,57.5c-17.8,25.5-32.2,53-42.8,82.2c-4.9,13.4-8.6,27.3-12.4,41.1c-4.3,15.4-7.2,31.2-8.3,47.2
		c-1,14.3-2.6,28.6-2.4,42.9c0.2,14.9,0.9,29.9,3,44.9c2.4,17.5,5.7,34.9,10.4,51.9c8,29,19.4,56.8,34.3,82.9
		c8.1,14.2,16.7,28,26.7,41c12,15.6,25.5,30,38.7,44.5c26.4,28.9,44.4,62.2,52.6,100.6c10.4,48.8,3.9,95.3-17.9,140
		c-10.8,22.1-25.8,41.2-42.7,58.8c-16.4,17-33.3,33.6-50.3,50.1c-18.1,17.6-38.8,31.5-61.9,41.7c-31.6,14-64.7,20.1-99.3,17.7
		c-42.1-2.8-80.1-16.5-113.7-41.8c-11.7-8.8-22.7-18.6-33.1-28.9c-36.3-35.8-72.2-72.1-108.3-108.1c-14.9-14.9-28.4-30.8-39.1-49.1
		c-7.3-12.4-13.5-25.3-18.1-38.9c-10.7-31.4-14.5-63.6-9.9-96.6c3.2-23.2,9.5-45.6,19.9-66.7c11.4-23.3,27-43.5,45.3-61.8
		c133.9-133.8,267.8-267.7,401.6-401.6c150.1-150.1,300.3-300.3,450.5-450.3c6.2-6.2,11.1-13.1,15.1-20.9
		c34.5-68,69.3-136,103.8-204c3.2-6.3,7.2-11.8,12.3-16.8c20.9-20.6,41.6-41.3,62.3-62.2c25.1-25.3,51.2-49.7,74.4-76.8
		c9.3-10.9,18.4-22.1,26.5-33.8c17.8-25.5,32.1-53,42.8-82.3c4.6-12.8,8.4-26,11.9-39.2c4-14.8,6.7-29.9,8.3-45.2
		C2242.2,638.8,2244,618.3,2242.4,597.6z M1987.7,2648.2c14.8-20.6,27.4-42.6,37.5-65.9c6.4-14.7,12.1-29.6,16.4-45
		c5.2-18.3,9.9-36.6,11.8-55.6c0.1-0.6,0.4-1.2,0.7-1.8c0.5,0,0.9,0,1.4,0.1c0,4.6,0,9.3,0,13.9c0,129.3,0,258.6,0,387.9
		c0,41.7,0,83.3,0.1,125c0,5,1.1,10,0.9,14.9c-0.5,12.3-0.7,24.6-5,36.5c-1.2,3.4-2,7.1-2.5,10.7c-1.5,12.4-6,23.9-11.1,35.1
		c-19.9,43.6-50.7,77-92.8,100.1c-25.5,14-52.8,22.1-81.6,25c-7.9,0.8-16,0.8-24,0.8c-50,0.1-100-0.1-150,0.1
		c-24.2,0.1-47.8-3.6-70.8-11.1c-27.6-9-52.2-23.4-73.9-42.7c-6-5.3-11.9-10.7-17.7-16.2c-20.1-19.2-42.3-35.6-66.2-49.7
		c-21.9-12.9-44.9-23.4-69-31.5c-16.5-5.5-33.2-10.1-50.2-13.3c-23.9-4.5-48.2-6.5-72.6-6.3c-30.5,0.3-60.5,4.4-89.9,12.1
		c-24.5,6.4-48.2,15.3-71,26.6c-14.3,7.2-28.3,15-41.5,24c-12.6,8.7-24.6,18.3-36.4,28c-9.5,7.9-18.2,16.7-27.4,24.9
		c-30.8,27.6-66.6,45-107.4,52.1c-23.1,4-46.5,4.2-69.7,0.1c-47.8-8.4-88.8-29.6-121.8-65.5c-29-31.5-46.9-68.5-53.8-110.7
		c-1-6.2-1.9-12.5-2.2-18.9c-0.6-11.3-2.7-22.5-1.3-33.8c1-7.6,1.5-15.2,4.1-22.5c1.5-4,2.5-8.3,3-12.6c1.5-12.8,6.4-24.5,11.8-35.9
		c23.6-49.6,60.5-85.5,111.1-107.1c32.6-13.9,66.7-19,101.7-15.8c47.2,4.4,88.9,22,124.3,54c6.7,6,13.3,12.1,19.9,18.2
		c27.7,26,59.1,46.6,93.4,62.8c23.5,11.1,48.2,19.3,73.6,25.3c36.7,8.8,73.8,11.2,111.2,8.6c26.6-1.8,52.8-6.9,78.4-14.6
		c26.6-8,52-18.8,76.2-32.4c22.2-12.4,42.8-27,61.8-43.9c8.4-7.6,16.7-15.4,25.1-22.9c27.8-25,59.7-42.1,96.3-50.5
		c12.7-2.9,25.5-4.4,38.6-5.2c23.6-1.5,47.3-1.8,70.6-6.1c12.4-2.3,24.9-4.9,37.1-8.2c30-8.2,58.6-20.1,85.6-35.6
		c22.3-12.8,43.1-27.8,62.3-44.9C1953.4,2690.7,1971.7,2670.5,1987.7,2648.2z M1423.2,1022.4c3.5,2.2,6.3,5.5,9.5,9.2
		c-0.9,1.6-1.6,3.4-2.8,4.9c-33,43.6-65.9,87.2-98.9,130.7c-0.8,1-1.7,2-3,3.4c-8-6-22-20.2-26.4-26.5
		C1306.2,1137.8,1415.2,1028.6,1423.2,1022.4z M802.3,1877.5c-34.4,34.4-68.8,68.8-103.2,103.2c-16.5,16.5-32.3,33.7-46.1,52.6
		c-15.9,21.9-29.4,45.2-40.3,70c-6.8,15.6-12.7,31.5-17.2,47.9c-4.8,17.3-9.3,34.7-10.7,52.8c-1,12.9-2.2,25.9-3.2,38.8
		c-0.3,3.6-0.4,7.2,1.2,10.8c1,2.3,0.9,5.2,0.9,7.8c0.1,43.3,0.1,86.6,0.1,130c0,29.7-5.5,58.3-17.2,85.6
		c-17.2,39.9-44,71.9-80.7,95.4c-22.7,14.6-47.2,24.5-73.6,30c-21.4,4.4-43,5-64.7,2.7c-27.8-3-54-11.3-78.6-24.7
		c-12-6.6-23.4-14.2-33.9-22.9c-13.3-11.1-25.8-23.1-36-37.3c-21.3-29.8-35.2-62.5-39.9-99c-2.6-20.3-2.6-40.6,0.7-60.7
		c4.7-27.8,13.7-54.2,28.8-78.3c7.4-11.9,16.1-22.8,25.2-33.5c12.8-14.9,26.6-28.9,38.5-44.6c15.9-21.1,29.6-43.6,40.8-67.4
		c11.6-24.8,20.2-50.7,26.2-77.5c7.9-35.8,10.2-71.9,7.6-108.3c-1.8-25.6-6.7-50.8-14.1-75.5c-8-26.9-19-52.6-32.7-77.1
		c-12.2-21.9-26.6-42.3-43.2-61c-8.4-9.5-17.3-18.5-25.6-28.1c-28.6-32.7-46.3-70.4-52-113.7c-2.7-20.3-2.7-40.6,0.7-60.7
		c4.5-27.2,13.3-52.9,27.6-76.6c22-36.4,52.2-63.7,90.4-82.2c21.5-10.4,44.1-17.1,67.8-19.5c12.9-1.3,25.9-2,38.9-2.1
		c82-0.2,164-0.1,245.9,0c7.4,0,14.5-1,21.5-3.3c73.8-24.1,147.6-47.9,221.4-72c5.8-1.9,11.5-2.8,17.6-2.8c26.3,0.1,52.7,0,79,0.1
		c3.3,0,6.6,0.2,11.2,0.4c0.1,4.7,0.4,8.3,0.4,11.9c0,18,0,36,0.1,54c0,3.6-0.8,7.4,1.7,11.1c14.4,1.6,29-0.1,43.5-1.4
		c14.6-1.3,29.1-3.2,43.6-5.6c14.4-2.4,28.8-5.3,43-9c14.2-3.6,28.2-8,42-12.9c13.8-4.8,27.5-10.2,40.9-16.2
		c13.4-5.9,26.5-12.5,39.4-19.5c12.8-6.9,25.1-14.6,37.7-21.9c1.3,3.1-0.5,5-1.3,7c-30.7,74.2-61.4,148.3-92.1,222.6
		c-2,4.8-5.2,8.4-8.8,11.9c-41,41-82,82-123,123C966.3,1713.5,884.3,1795.5,802.3,1877.5z M1449.4,1459.3
		c-34.3,67.4-68.7,134.8-103,202.2c-2.2,4.2-5,7.8-8.3,11.1c-48.8,48.7-97.6,97.5-146.4,146.3c-9.2,9.2-18.4,18.4-27.6,27.6
		c-2.3,2.3-4.8,4.6-7.9,7.6c-11-4.6-21.6-8.4-32.2-13.8c1.1-3,1.9-5.9,3-8.6c12.4-30.2,25-60.3,37.3-90.6c1.8-4.5,4.6-8,8-11.3
		c21-20.9,42-41.9,62.9-62.9c69.5-69.5,139-139.1,208.6-208.6c2.4-2.4,4.6-5.3,9.5-7.6C1451.6,1454.7,1450.5,1457,1449.4,1459.3z
		 M2085.4,620.2c-0.8,34.6-9.5,67.1-26.1,97.5c-7.5,13.8-16.6,26.5-26.9,38.4c-14.4,16.7-30.4,31.8-45.9,47.4
		c-35.5,35.7-71.2,71.2-106.7,106.8c-4.5,4.5-9.5,8.2-15.2,11.2c-71.5,37.3-142.9,74.8-214.3,112.2c-6,3.1-11.2,6.9-16,11.7
		c-51.1,51.2-102.2,102.3-153.4,153.5c-2.8,2.8-5.7,5.5-8.7,8.4c-1.9-3.6,0.2-5.9,1.2-8.2c11.4-27.7,22.9-55.4,34.4-83.1
		c28.5-68.9,57.1-137.9,85.6-206.8c1.4-3.4,2.9-6.6,2.4-10.5c-0.3-2.1,1.1-4.4,1.9-6.6c15.5-39.6,25.6-80.7,30.8-122.8
		c2.4-19.5,3.9-39.2,3.8-58.8c-0.1-19.6-1.2-39.2-4-58.8c-5.1-35.6-15-69.7-29.9-102.3c-10.6-23.4-23.7-45.5-39.1-66.1
		c-16-21.5-33.9-41.1-54-58.8c-19.1-16.8-39.8-31.3-61.9-43.7c-14.8-8.3-30.1-15.6-46-21.8c-16.2-6.2-32.7-11.3-49.5-15.6
		c-17.5-4.5-35.3-6.9-53.2-8.8c-19.3-2-38.6-1.3-57.9,0c-45.7,3-89.4,14.3-130.9,33.5c-33.4,15.5-63.9,35.6-91.5,60.3
		c-20.4,18.4-38.7,38.6-54.6,61c-14.7,20.7-27.1,42.7-37.3,66c-11.1,25.5-19.4,51.8-24.5,79c-2.7,14.4-4.2,29-5.4,43.6
		c-1.2,14.6-0.8,29.3-2.2,43.9c-2.5,26-9,51.1-20.5,74.7c-18.6,38.2-46.3,68.2-82.8,89.9c-24,14.3-49.9,23.8-77.7,27.4
		c-11.5,1.5-23.2,2.7-34.8,3c-8.9,0.2-18-0.6-26.9-2.1c-19.1-3.2-37.7-8.1-55.7-15.6c-50.9-21.5-102-42.8-153-64.1
		c-16.9-7.1-33.8-14.2-50.8-21c-25-10.1-47-24.9-67.1-42.8c-8.3-7.3-16-15-22.6-23.8c-3-4-6-7.9-8-12.6c-1.6-3.6-3.8-7.1-6.3-10.2
		c-7.7-9.5-12.3-20.6-16.5-31.8c-19.2-51.5-19-102.9,0.8-154.3c13.2-34.4,35.1-62.5,62.3-86.9c32.1-28.7,68.1-51.1,107.9-67.6
		c78.5-32.5,157-64.9,235.4-97.6c34.7-14.4,70.6-24.1,108-27.9c13.6-1.3,27.3-2.1,40.9-2.1c214.3-0.1,428.6-0.1,642.9,0
		c16,0,32,0,48-0.1c52.7-0.2,103.2,9.8,151.9,30.1c78.1,32.6,156.3,64.9,234.5,97.2c40.1,16.6,76.4,39.2,108.8,68
		c22.4,20,40.9,42.9,54.2,69.8C2079,552.7,2086.2,585.5,2085.4,620.2z"/>
</g>
</svg>
