<?xml version="1.0" encoding="utf-8"?>
<!-- Generator: Adobe Illustrator 15.1.0, SVG Export Plug-In . SVG Version: 6.00 Build 0)  -->
<!DOCTYPE svg PUBLIC "-//W3C//DTD SVG 1.1//EN" "http://www.w3.org/Graphics/SVG/1.1/DTD/svg11.dtd">
<svg version="1.1"
	 id="Layer_1" inkscape:version="0.48.5 r10040" xmlns:svg="http://www.w3.org/2000/svg" xmlns:rdf="http://www.w3.org/1999/02/22-rdf-syntax-ns#" xmlns:cc="http://creativecommons.org/ns#" xmlns:dc="http://purl.org/dc/elements/1.1/" sodipodi:docname="Blue_rectangle_of_the_license_plate_of_Israel.svg" xmlns:inkscape="http://www.inkscape.org/namespaces/inkscape" xmlns:sodipodi="http://sodipodi.sourceforge.net/DTD/sodipodi-0.dtd"
	 xmlns="http://www.w3.org/2000/svg" xmlns:xlink="http://www.w3.org/1999/xlink" x="0px" y="0px" width="111px" height="226px"
	 viewBox="0 0 111 226" enable-background="new 0 0 111 226" xml:space="preserve">
<sodipodi:namedview  id="namedview3077" objecttolerance="10" pagecolor="#ffffff" gridtolerance="10" guidetolerance="10" inkscape:pageopacity="0" inkscape:pageshadow="2" inkscape:window-width="1366" showgrid="false" inkscape:zoom="1.0442478" inkscape:cx="-93.889831" inkscape:cy="113" inkscape:window-x="-8" inkscape:window-y="-8" inkscape:window-maximized="1" inkscape:window-height="705" inkscape:current-layer="Layer_1" bordercolor="#666666" borderopacity="1">
	</sodipodi:namedview>
<rect id="rect3035" x="7.667" y="7.667" fill="#FFFFFF" width="99" height="72.667"/>
<path id="path3037" fill="#0094F3" d="M0,0v226h111V0H0z M96.667,71.167H17.333V19.333h79.333L96.667,71.167L96.667,71.167z"/>
<g id="g3039">
	<path id="path3041" fill="#FFFFFF" d="M11.902,161.581h4.823v5.224h11.983v11.146l-5.153,6.171h-6.321l6.65-7.819v-4.673H11.902
		V161.581z"/>
	<path id="path3043" fill="#FFFFFF" d="M36.646,166.805l4.823,7.01l2.157-1.857v-5.152h4.823v7.489l-4.164,3.655l4.164,6.171h-5.812
		l-4.673-6.83l-2.157,1.827v5.003h-4.823v-7.489l4.164-3.505l-4.344-6.321H36.646L36.646,166.805z"/>
	<path id="path3045" fill="#FFFFFF" d="M51.355,166.805h15.579v17.314h-4.824v-12.492H51.355V166.805z"/>
	<path id="path3047" fill="#FFFFFF" d="M69.329,166.805h4.823v12.491h3.505v-12.491h4.823v12.491h2.006l1.498-1.498v-10.993h4.824
		v12.491l-4.824,4.823H69.329V166.805z"/>
	<path id="path3049" fill="#FFFFFF" d="M93.564,166.805h4.822v7.488h-4.822V166.805z"/>
</g>
<g id="g3051">
	<path id="path3053" fill="#FFFFFF" d="M28.675,190.63c0.194,4.323,0.339,8.121,0.339,12.304c0,0.823,0.509,1.838,1.212,2.24
		c0.533,0.299,1.309,0.473,2.376,0.49h0.267v2.24h-0.46c-1.746,0-3.031-0.402-3.807-1.312h-0.097
		c-0.17,0.893-0.412,1.803-0.849,2.607c-0.751,0.875-1.721,1.488-2.788,1.978c-1.552,0.735-3.322,1.087-5.043,1.087
		c-2.109,0-3.855-0.525-5.043-1.507c-1.116-0.928-1.722-2.258-1.722-3.955c0-1.471,0.655-2.94,1.625-4.409l0.873,0.244
		c-0.606,0.997-1.019,2.029-1.019,3.045c0,1.032,0.388,1.926,1.237,2.713c1.042,0.979,2.473,1.418,4.194,1.418
		c1.625,0,2.982-0.332,4.195-0.822c1.188-0.473,2.158-1.016,2.643-1.662c0.048-0.193,0.17-0.368,0.17-1.155
		c0-2.729-0.194-7.264-0.728-14.089c0.728-0.578,1.455-1.104,2.23-1.54L28.675,190.63z"/>
	<path id="path3055" fill="#FFFFFF" d="M33.402,205.665c1.867,0,3.807-0.543,4.17-1.54l0.703-1.891l1.673-0.875l0.146,0.123
		c-0.34,0.893-0.534,1.645-0.534,2.029c0,0.612,0.218,1.12,0.8,1.452c0.776,0.455,1.721,0.7,3.006,0.7h0.437v2.24h-0.558
		c-2.376,0-4.17-0.473-4.995-1.785h-0.097c-0.824,1.173-2.74,1.785-4.825,1.785h-0.46c-1.333,0-1.697-0.7-1.697-1.174
		c0-0.42,0.388-1.066,1.697-1.066L33.402,205.665L33.402,205.665z M36.143,214.889c-0.994-0.684-1.867-1.244-2.837-1.82
		c0.63-0.631,1.309-1.209,1.916-1.663c0.994,0.561,1.818,1.138,2.764,1.872C37.306,213.979,36.821,214.434,36.143,214.889z
		 M40.822,214.661c-0.994-0.683-1.867-1.243-2.837-1.82c0.631-0.63,1.31-1.208,1.916-1.663c0.994,0.562,1.819,1.139,2.764,1.873
		C41.986,213.75,41.501,214.206,40.822,214.661z"/>
	<path id="path3057" fill="#FFFFFF" d="M49.89,198.261c1.115,1.419,2.424,3.605,2.424,5.339c0,1.312-0.727,2.327-1.697,3.256
		c-1.091,0.787-2.812,1.05-6.522,1.05h-0.291c-1.333,0-1.697-0.7-1.697-1.173c0-0.42,0.388-1.067,1.697-1.067h0.412
		c2.061,0,3.71-0.054,4.776-0.333c0.849-0.229,1.382-0.473,1.382-0.77c0-0.822-1.164-2.539-2.425-4.323
		c0.582-0.753,1.188-1.417,1.818-1.979H49.89z M52.096,194.499c-0.291,0.438-0.606,0.84-0.945,1.19
		c-2.425,0.278-4.534,0.733-6.304,1.312l-0.048-0.053l0.582-0.735c0.218-0.191,0.703-0.473,1.115-0.577v-0.053
		c-1.14-0.245-1.891-0.771-1.891-1.522c0-0.473,0.436-1.033,1.14-1.539c0.945-0.613,1.939-0.998,2.934-0.998
		c0.97,0,1.527,0.401,1.527,0.856s-0.388,0.806-0.776,1.138h-0.048c-0.267-0.385-0.509-0.629-0.776-0.683
		c-0.17-0.035-0.461-0.052-0.751-0.052c-0.849,0-1.697,0.35-1.697,0.611c0,0.84,2.037,1.121,3.467,1.121
		c0.825,0,1.649-0.035,2.473-0.07v0.054H52.096z"/>
	<path id="path3059" fill="#FFFFFF" d="M57.164,208.203c0.243-1.104,0.268-2.346,0.268-3.501v-1.716
		c0-3.202-0.486-7.857-0.873-10.885c0.678-0.632,1.625-1.365,2.375-1.855l0.219,0.053c0.509,3.815,0.63,8.243,0.63,12.321
		c0,1.067-0.048,2.116-0.171,2.888c-0.072,0.962-0.727,1.697-2.133,2.817L57.164,208.203z"/>
	<path id="path3061" fill="#FFFFFF" d="M83.52,205.157c0.85-0.455,0.971-0.962,1.722-2.782l1.454-0.613l0.146,0.07
		c-0.193,0.561-0.314,1.227-0.314,1.715c0,1.331,1.357,2.014,2.521,2.014c0.679,0,1.285-0.263,1.285-0.787
		c0-0.684-0.291-1.804-0.606-2.836c0.68-0.578,1.406-1.103,2.183-1.574l0.146,0.052c0.291,1.313,0.389,2.381,0.389,3.116
		c0,0.787-0.437,1.785-0.873,2.396c-0.922,1.104-2.182,1.926-3.588,1.926c-1.043,0-2.158-0.561-3.031-1.453h-0.194
		c-0.873,0.701-2.085,1.506-3.831,1.506c-2.352,0-4.025-1.33-4.001-3.344c-2.376,0.543-4.098,0.929-5.625,1.471
		c0.194,0.438,0.291,0.893,0.291,1.296c0,0.733-0.048,1.47-0.097,2.205c-0.073,1.241-0.631,2.239-1.867,3.325
		c-2.085,1.574-3.783,2.135-5.357,2.135c-1.697,0-3.662-0.577-5.869-1.697l0.365-0.49c1.018,0.334,1.987,0.455,2.957,0.455
		c2.303,0,4.34-0.77,6.256-1.941c1.551-1.155,2.399-2.014,2.399-2.854c0-0.578-0.823-1.348-1.771-2.101
		c0.146-0.63,0.389-1.349,0.729-2.118c2.812-0.84,5.844-1.559,9.044-2.064l0.048,0.123c-0.121,0.35-0.146,0.699-0.146,1.049
		c0,1.19,1.454,2.312,3.079,2.312C82.064,205.665,82.865,205.49,83.52,205.157z"/>
	<path id="path3063" fill="#FFFFFF" d="M102.844,212.175c-0.291,0.438-0.605,0.841-0.945,1.19c-2.424,0.279-4.535,0.734-6.305,1.312
		l-0.048-0.053l0.582-0.735c0.218-0.191,0.703-0.473,1.115-0.576v-0.054c-1.14-0.245-1.892-0.77-1.892-1.522
		c0-0.473,0.438-1.031,1.141-1.539c0.945-0.613,1.939-0.998,2.934-0.998c0.971,0,1.527,0.402,1.527,0.857
		c0,0.454-0.389,0.805-0.775,1.137h-0.049c-0.268-0.385-0.509-0.629-0.775-0.683c-0.17-0.034-0.461-0.052-0.752-0.052
		c-0.85,0-1.697,0.35-1.697,0.612c0,0.84,2.037,1.12,3.467,1.12c0.824,0,1.648-0.035,2.473-0.07V212.175z M97.945,208.203
		c0.244-1.104,0.268-2.346,0.268-3.501v-1.716c0-3.202-0.484-7.857-0.873-10.885c0.68-0.632,1.625-1.365,2.376-1.855l0.218,0.053
		c0.51,3.815,0.631,8.243,0.631,12.321c0,1.067-0.049,2.116-0.17,2.888c-0.072,0.962-0.728,1.697-2.133,2.817L97.945,208.203z"/>
</g>
<g id="g3065">
	<path id="path3067" fill="#FFFFFF" d="M34.771,154.585V76.911h10.817v77.674H34.771z"/>
	<path id="path3069" fill="#FFFFFF" d="M56.188,154.585V77.547h10.818v63.952h26.898v13.087L56.188,154.585L56.188,154.585z"/>
</g>
<rect id="rect3071" x="25.641" y="26.841" fill="#0094F3" width="64.927" height="4.8"/>
<rect id="rect3073" x="25.641" y="59.178" fill="#0094F3" width="64.927" height="4.8"/>
<path id="path3075" fill="#0094F3" d="M65.093,45.221l3.505-6.07h-7.009l-3.562-6.167l-3.561,6.167h-7.01l3.505,6.071l-3.505,6.07
	h7.009l3.562,6.167l3.561-6.167h7.01L65.093,45.221z M66,40.65l-1.773,3.071l-1.772-3.071H66z M63.361,45.221l-2.639,4.571h-5.39
	l-2.639-4.57l2.639-4.571h5.39L63.361,45.221z M58.027,35.983l1.83,3.167H56.2L58.027,35.983z M50.056,40.65h3.546l-1.773,3.071
	L50.056,40.65z M50.056,49.792l1.773-3.071l1.773,3.071H50.056z M58.027,54.458l-1.828-3.167h3.656L58.027,54.458z M64.229,46.721
	L66,49.792h-3.546L64.229,46.721z"/>
</svg>
